<svg width="22" height="22" viewBox="0 0 22 22" fill="none" xmlns="http://www.w3.org/2000/svg">
<path fill-rule="evenodd" clip-rule="evenodd" d="M11 20.9998C5.47715 20.9998 1 16.5226 1 10.9998C1 5.47691 5.47715 0.999756 11 0.999756C16.5228 0.999756 21 5.47691 21 10.9998C21 16.5226 16.5228 20.9998 11 20.9998ZM11 19.1816C15.5187 19.1816 19.1818 15.5184 19.1818 10.9997C19.1818 6.48103 15.5187 2.81791 11 2.81791C6.48128 2.81791 2.81815 6.48103 2.81815 10.9997C2.81815 15.5184 6.48128 19.1816 11 19.1816ZM8.39278 9.76327C8.03336 9.34394 7.40206 9.29538 6.98273 9.6548C6.56341 10.0142 6.51485 10.6455 6.87427 11.0648L9.49219 14.1191C10.0933 14.8204 11.1795 14.817 11.7761 14.1118L16.2094 8.8725C16.5662 8.45089 16.5136 7.81991 16.092 7.46317C15.6704 7.10643 15.0394 7.15901 14.6826 7.58061L10.6286 12.3717L8.39278 9.76327Z" fill="url(#paint0_linear_7_2382)"/>
<defs>
<linearGradient id="paint0_linear_7_2382" x1="9" y1="7.5" x2="10.5089" y2="15.8594" gradientUnits="userSpaceOnUse">
<stop stop-color="#0CD38B"/>
<stop offset="1" stop-color="#0CB477"/>
</linearGradient>
</defs>
</svg>
